<svg width="256" height="256" viewBox="0 0 256 256" fill="none" xmlns="http://www.w3.org/2000/svg">
  <rect width="256" height="256" rx="64" fill="#0F172A" />
  <circle cx="128" cy="128" r="84" fill="url(#paint0_linear_420_7)" />
  <path
    d="M167.748 89.366C158.851 79.0627 145.309 73.2 129.519 73.2C102.836 73.2 83.5141 89.9412 83.5141 112.803C83.5141 137.092 104.278 148.985 124.082 155.188C142.575 161.003 149.489 165.606 149.489 173.969C149.489 182.622 141.249 188.238 128.526 188.238C114.984 188.238 101.482 181.8 90.9308 170.379L72 188.4C85.2619 203.018 104.756 211.8 127.533 211.8C155.741 211.8 177.6 195.72 177.6 171.754C177.6 149.848 161.288 138.589 136.114 130.385C116.55 123.904 111.625 120.059 111.625 112.155C111.625 104.572 118.698 98.5944 130.962 98.5944C140.838 98.5944 150.873 102.59 159.512 111.391L167.748 89.366Z"
    fill="#020617"
  />
  <defs>
    <linearGradient id="paint0_linear_420_7" x1="38.2" y1="25.6" x2="230.4" y2="230.4" gradientUnits="userSpaceOnUse">
      <stop stop-color="#22D3EE" />
      <stop offset="1" stop-color="#34D399" />
    </linearGradient>
  </defs>
</svg>
